<?xml version="1.0" encoding="UTF-8"?>
<svg xmlns="http://www.w3.org/2000/svg" xmlns:xlink="http://www.w3.org/1999/xlink" viewBox="0 0 150 150" width="150px" height="150px">
<g id="surface46656492">
<path style=" stroke:none;fill-rule:nonzero;fill:rgb(31.37255%,0%,0%);fill-opacity:1;" d="M 131.25 115.625 C 131.25 124.257812 124.257812 131.25 115.625 131.25 L 34.375 131.25 C 25.746094 131.25 18.75 124.257812 18.75 115.625 L 18.75 34.375 C 18.75 25.742188 25.746094 18.75 34.375 18.75 L 115.625 18.75 C 124.257812 18.75 131.25 25.742188 131.25 34.375 Z M 131.25 115.625 "/>
<path style=" stroke:none;fill-rule:nonzero;fill:rgb(100%,60.392159%,0%);fill-opacity:1;" d="M 75.113281 85.414062 L 58.273438 85.414062 L 54.832031 96.050781 C 54.742188 96.457031 54.378906 96.726562 53.972656 96.683594 L 45.460938 96.683594 C 44.960938 96.683594 44.824219 96.414062 44.960938 95.867188 L 59.539062 53.898438 C 59.675781 53.445312 59.8125 52.949219 59.992188 52.40625 C 60.175781 51.457031 60.265625 50.460938 60.265625 49.460938 C 60.222656 49.238281 60.398438 49.007812 60.628906 48.964844 L 72.351562 48.964844 C 72.714844 48.964844 72.898438 49.101562 72.941406 49.328125 L 89.464844 95.960938 C 89.601562 96.457031 89.464844 96.683594 89.011719 96.683594 L 79.550781 96.683594 C 79.234375 96.726562 78.914062 96.503906 78.824219 96.1875 Z M 60.898438 76.222656 L 72.398438 76.222656 C 72.125 75.273438 71.761719 74.140625 71.355469 72.960938 C 70.949219 71.742188 70.539062 70.429688 70.132812 69.070312 C 69.679688 67.664062 69.273438 66.304688 68.820312 64.902344 C 68.367188 63.5 67.960938 62.1875 67.601562 60.875 C 67.238281 59.605469 66.921875 58.429688 66.601562 57.34375 L 66.511719 57.34375 C 66.105469 59.289062 65.605469 61.238281 64.972656 63.183594 C 64.292969 65.355469 63.613281 67.621094 62.890625 69.882812 C 62.257812 72.195312 61.574219 74.320312 60.898438 76.222656 Z M 60.898438 76.222656 "/>
<path style=" stroke:none;fill-rule:nonzero;fill:rgb(100%,60.392159%,0%);fill-opacity:1;" d="M 99.558594 56.890625 C 98.066406 56.933594 96.617188 56.347656 95.53125 55.304688 C 94.492188 54.175781 93.945312 52.679688 93.992188 51.140625 C 93.945312 49.601562 94.535156 48.152344 95.621094 47.113281 C 96.710938 46.070312 98.15625 45.527344 99.648438 45.527344 C 101.414062 45.527344 102.773438 46.070312 103.769531 47.113281 C 104.765625 48.199219 105.308594 49.648438 105.261719 51.140625 C 105.304688 52.679688 104.765625 54.175781 103.679688 55.304688 C 102.636719 56.394531 101.101562 56.980469 99.558594 56.890625 Z M 94.488281 96.1875 L 94.488281 61.328125 C 94.488281 60.875 94.667969 60.695312 95.074219 60.695312 L 104.039062 60.695312 C 104.445312 60.695312 104.625 60.917969 104.625 61.328125 L 104.625 96.1875 C 104.625 96.683594 104.445312 96.914062 104.039062 96.914062 L 95.164062 96.914062 C 94.714844 96.914062 94.488281 96.640625 94.488281 96.1875 Z M 94.488281 96.1875 "/>
</g>
</svg>
