<?xml version="1.0" encoding="UTF-8"?>
<svg xmlns="http://www.w3.org/2000/svg" xmlns:xlink="http://www.w3.org/1999/xlink" viewBox="0 0 150 150" width="150px" height="150px">
<g id="surface46611286">
<path style=" stroke:none;fill-rule:nonzero;fill:rgb(0%,11.764706%,21.176471%);fill-opacity:1;" d="M 131.25 115.625 C 131.25 124.257812 124.257812 131.25 115.625 131.25 L 34.375 131.25 C 25.746094 131.25 18.75 124.257812 18.75 115.625 L 18.75 34.375 C 18.75 25.742188 25.746094 18.75 34.375 18.75 L 115.625 18.75 C 124.257812 18.75 131.25 25.742188 131.25 34.375 Z M 131.25 115.625 "/>
<path style=" stroke:none;fill-rule:nonzero;fill:rgb(19.215687%,65.882355%,100%);fill-opacity:1;" d="M 44.0625 97.078125 L 44.0625 48.84375 C 44.0625 48.515625 44.203125 48.328125 44.53125 48.328125 C 45.328125 48.328125 46.078125 48.328125 47.15625 48.28125 C 48.28125 48.234375 49.453125 48.234375 50.71875 48.1875 C 51.984375 48.140625 53.34375 48.140625 54.796875 48.09375 C 56.25 48.046875 57.65625 48.046875 59.0625 48.046875 C 62.90625 48.046875 66.09375 48.515625 68.71875 49.5 C 71.0625 50.296875 73.21875 51.609375 75 53.34375 C 76.5 54.84375 77.671875 56.671875 78.421875 58.6875 C 79.125 60.65625 79.5 62.671875 79.5 64.78125 C 79.5 68.8125 78.5625 72.140625 76.6875 74.765625 C 74.8125 77.390625 72.1875 79.359375 69.140625 80.484375 C 65.953125 81.65625 62.4375 82.078125 58.59375 82.078125 C 57.46875 82.078125 56.71875 82.078125 56.25 82.03125 C 55.78125 81.984375 55.125 81.984375 54.234375 81.984375 L 54.234375 97.03125 C 54.28125 97.359375 54.046875 97.640625 53.71875 97.6875 C 53.671875 97.6875 53.625 97.6875 53.53125 97.6875 L 44.625 97.6875 C 44.25 97.6875 44.0625 97.5 44.0625 97.078125 Z M 54.28125 57.375 L 54.28125 73.125 C 54.9375 73.171875 55.546875 73.21875 56.109375 73.21875 L 58.59375 73.21875 C 60.421875 73.21875 62.25 72.9375 63.984375 72.375 C 65.484375 71.953125 66.796875 71.0625 67.828125 69.890625 C 68.8125 68.71875 69.28125 67.125 69.28125 65.0625 C 69.328125 63.609375 68.953125 62.15625 68.203125 60.890625 C 67.40625 59.671875 66.28125 58.734375 64.921875 58.21875 C 63.1875 57.515625 61.3125 57.234375 59.390625 57.28125 C 58.171875 57.28125 57.09375 57.28125 56.203125 57.328125 C 55.265625 57.28125 54.609375 57.328125 54.28125 57.375 Z M 54.28125 57.375 "/>
<path style=" stroke:none;fill-rule:nonzero;fill:rgb(19.215687%,65.882355%,100%);fill-opacity:1;" d="M 108.75 70.265625 C 107.34375 69.515625 105.84375 69 104.25 68.671875 C 102.515625 68.296875 100.78125 68.0625 99 68.0625 C 98.0625 68.015625 97.078125 68.15625 96.1875 68.390625 C 95.578125 68.53125 95.0625 68.859375 94.734375 69.328125 C 94.5 69.703125 94.359375 70.171875 94.359375 70.59375 C 94.359375 71.015625 94.546875 71.4375 94.828125 71.8125 C 95.25 72.328125 95.8125 72.75 96.421875 73.078125 C 97.5 73.640625 98.625 74.15625 99.75 74.625 C 102.28125 75.46875 104.71875 76.640625 106.96875 78.046875 C 108.515625 79.03125 109.78125 80.34375 110.671875 81.9375 C 111.421875 83.4375 111.796875 85.078125 111.75 86.765625 C 111.796875 88.96875 111.140625 91.171875 109.921875 93 C 108.609375 94.875 106.78125 96.328125 104.671875 97.171875 C 102.375 98.15625 99.5625 98.671875 96.1875 98.671875 C 94.03125 98.671875 91.921875 98.484375 89.8125 98.0625 C 88.171875 97.78125 86.53125 97.265625 85.03125 96.5625 C 84.703125 96.375 84.46875 96.046875 84.515625 95.671875 L 84.515625 87.515625 C 84.515625 87.375 84.5625 87.1875 84.703125 87.09375 C 84.84375 87 84.984375 87.046875 85.125 87.140625 C 86.953125 88.21875 88.875 88.96875 90.9375 89.4375 C 92.71875 89.90625 94.59375 90.140625 96.46875 90.140625 C 98.25 90.140625 99.515625 89.90625 100.359375 89.484375 C 101.109375 89.15625 101.625 88.359375 101.625 87.515625 C 101.625 86.859375 101.25 86.25 100.5 85.640625 C 99.75 85.03125 98.203125 84.328125 95.90625 83.4375 C 93.515625 82.59375 91.3125 81.46875 89.25 80.0625 C 87.796875 79.03125 86.578125 77.671875 85.6875 76.078125 C 84.9375 74.578125 84.5625 72.9375 84.609375 71.296875 C 84.609375 69.28125 85.171875 67.359375 86.203125 65.625 C 87.375 63.75 89.109375 62.25 91.125 61.3125 C 93.328125 60.1875 96.09375 59.671875 99.421875 59.671875 C 101.34375 59.671875 103.3125 59.8125 105.234375 60.09375 C 106.640625 60.28125 108 60.65625 109.265625 61.171875 C 109.453125 61.21875 109.640625 61.40625 109.734375 61.59375 C 109.78125 61.78125 109.828125 61.96875 109.828125 62.15625 L 109.828125 69.796875 C 109.828125 69.984375 109.734375 70.171875 109.59375 70.265625 C 109.171875 70.359375 108.9375 70.359375 108.75 70.265625 Z M 108.75 70.265625 "/>
</g>
</svg>
